<svg xmlns="http://www.w3.org/2000/svg" viewBox="0 0 24 24" shape-rendering="crispEdges">
<rect x="4" y="1" width="2" height="1" fill="#17151f"/>
<rect x="18" y="1" width="2" height="1" fill="#17151f"/>
<rect x="4" y="2" width="1" height="1" fill="#17151f"/>
<rect x="5" y="2" width="2" height="1" fill="#fbcfe8"/>
<rect x="7" y="2" width="1" height="1" fill="#17151f"/>
<rect x="16" y="2" width="1" height="1" fill="#17151f"/>
<rect x="17" y="2" width="2" height="1" fill="#fbcfe8"/>
<rect x="19" y="2" width="1" height="1" fill="#17151f"/>
<rect x="4" y="3" width="1" height="1" fill="#17151f"/>
<rect x="5" y="3" width="1" height="1" fill="#ffffff"/>
<rect x="6" y="3" width="1" height="1" fill="#fbcfe8"/>
<rect x="7" y="3" width="1" height="1" fill="#17151f"/>
<rect x="16" y="3" width="1" height="1" fill="#17151f"/>
<rect x="17" y="3" width="1" height="1" fill="#fbcfe8"/>
<rect x="18" y="3" width="1" height="1" fill="#ffffff"/>
<rect x="19" y="3" width="1" height="1" fill="#17151f"/>
<rect x="3" y="4" width="2" height="1" fill="#17151f"/>
<rect x="5" y="4" width="3" height="1" fill="#ffffff"/>
<rect x="8" y="4" width="8" height="1" fill="#17151f"/>
<rect x="16" y="4" width="3" height="1" fill="#ffffff"/>
<rect x="19" y="4" width="2" height="1" fill="#17151f"/>
<rect x="3" y="5" width="1" height="1" fill="#17151f"/>
<rect x="4" y="5" width="16" height="1" fill="#ffffff"/>
<rect x="20" y="5" width="1" height="1" fill="#17151f"/>
<rect x="3" y="6" width="1" height="1" fill="#17151f"/>
<rect x="4" y="6" width="16" height="1" fill="#ffffff"/>
<rect x="20" y="6" width="1" height="1" fill="#17151f"/>
<rect x="3" y="7" width="1" height="1" fill="#17151f"/>
<rect x="4" y="7" width="2" height="1" fill="#ffffff"/>
<rect x="6" y="7" width="2" height="1" fill="#a5f3fc"/>
<rect x="8" y="7" width="1" height="1" fill="#0891b2"/>
<rect x="9" y="7" width="6" height="1" fill="#ffffff"/>
<rect x="15" y="7" width="1" height="1" fill="#0891b2"/>
<rect x="16" y="7" width="2" height="1" fill="#a5f3fc"/>
<rect x="18" y="7" width="2" height="1" fill="#ffffff"/>
<rect x="20" y="7" width="1" height="1" fill="#17151f"/>
<rect x="3" y="8" width="1" height="1" fill="#17151f"/>
<rect x="4" y="8" width="2" height="1" fill="#ffffff"/>
<rect x="6" y="8" width="3" height="1" fill="#0891b2"/>
<rect x="9" y="8" width="6" height="1" fill="#ffffff"/>
<rect x="15" y="8" width="3" height="1" fill="#0891b2"/>
<rect x="18" y="8" width="2" height="1" fill="#ffffff"/>
<rect x="20" y="8" width="1" height="1" fill="#17151f"/>
<rect x="3" y="9" width="1" height="1" fill="#17151f"/>
<rect x="4" y="9" width="2" height="1" fill="#ffffff"/>
<rect x="6" y="9" width="2" height="1" fill="#0891b2"/>
<rect x="8" y="9" width="1" height="1" fill="#a5f3fc"/>
<rect x="9" y="9" width="6" height="1" fill="#ffffff"/>
<rect x="15" y="9" width="1" height="1" fill="#a5f3fc"/>
<rect x="16" y="9" width="2" height="1" fill="#0891b2"/>
<rect x="18" y="9" width="2" height="1" fill="#ffffff"/>
<rect x="20" y="9" width="1" height="1" fill="#17151f"/>
<rect x="3" y="10" width="1" height="1" fill="#17151f"/>
<rect x="4" y="10" width="2" height="1" fill="#fbcfe8"/>
<rect x="6" y="10" width="5" height="1" fill="#ffffff"/>
<rect x="11" y="10" width="2" height="1" fill="#fbcfe8"/>
<rect x="13" y="10" width="5" height="1" fill="#ffffff"/>
<rect x="18" y="10" width="2" height="1" fill="#fbcfe8"/>
<rect x="20" y="10" width="1" height="1" fill="#17151f"/>
<rect x="3" y="11" width="1" height="1" fill="#17151f"/>
<rect x="4" y="11" width="2" height="1" fill="#fbcfe8"/>
<rect x="6" y="11" width="3" height="1" fill="#ffffff"/>
<rect x="9" y="11" width="1" height="1" fill="#17151f"/>
<rect x="10" y="11" width="1" height="1" fill="#ffffff"/>
<rect x="11" y="11" width="1" height="1" fill="#17151f"/>
<rect x="12" y="11" width="1" height="1" fill="#ffffff"/>
<rect x="13" y="11" width="1" height="1" fill="#17151f"/>
<rect x="14" y="11" width="4" height="1" fill="#ffffff"/>
<rect x="18" y="11" width="2" height="1" fill="#fbcfe8"/>
<rect x="20" y="11" width="1" height="1" fill="#17151f"/>
<rect x="3" y="12" width="1" height="1" fill="#17151f"/>
<rect x="4" y="12" width="6" height="1" fill="#ffffff"/>
<rect x="10" y="12" width="1" height="1" fill="#17151f"/>
<rect x="11" y="12" width="1" height="1" fill="#ffffff"/>
<rect x="12" y="12" width="1" height="1" fill="#17151f"/>
<rect x="13" y="12" width="7" height="1" fill="#ffffff"/>
<rect x="20" y="12" width="1" height="1" fill="#17151f"/>
<rect x="4" y="13" width="1" height="1" fill="#17151f"/>
<rect x="5" y="13" width="14" height="1" fill="#ffffff"/>
<rect x="19" y="13" width="1" height="1" fill="#17151f"/>
<rect x="5" y="14" width="4" height="1" fill="#17151f"/>
<rect x="9" y="14" width="6" height="1" fill="#ffffff"/>
<rect x="15" y="14" width="4" height="1" fill="#17151f"/>
<rect x="6" y="15" width="1" height="1" fill="#17151f"/>
<rect x="7" y="15" width="1" height="1" fill="#ffffff"/>
<rect x="8" y="15" width="6" height="1" fill="#db2777"/>
<rect x="14" y="15" width="1" height="1" fill="#ffffff"/>
<rect x="15" y="15" width="1" height="1" fill="#17151f"/>
<rect x="5" y="16" width="1" height="1" fill="#17151f"/>
<rect x="6" y="16" width="2" height="1" fill="#ffffff"/>
<rect x="8" y="16" width="2" height="1" fill="#db2777"/>
<rect x="10" y="16" width="2" height="1" fill="#ffffff"/>
<rect x="12" y="16" width="2" height="1" fill="#db2777"/>
<rect x="14" y="16" width="2" height="1" fill="#ffffff"/>
<rect x="16" y="16" width="1" height="1" fill="#17151f"/>
<rect x="4" y="17" width="1" height="1" fill="#17151f"/>
<rect x="5" y="17" width="14" height="1" fill="#ffffff"/>
<rect x="19" y="17" width="1" height="1" fill="#17151f"/>
<rect x="3" y="18" width="1" height="1" fill="#17151f"/>
<rect x="4" y="18" width="16" height="1" fill="#ffffff"/>
<rect x="20" y="18" width="1" height="1" fill="#17151f"/>
<rect x="3" y="19" width="1" height="1" fill="#17151f"/>
<rect x="4" y="19" width="16" height="1" fill="#ffffff"/>
<rect x="20" y="19" width="1" height="1" fill="#17151f"/>
<rect x="2" y="20" width="1" height="1" fill="#17151f"/>
<rect x="3" y="20" width="16" height="1" fill="#ffffff"/>
<rect x="19" y="20" width="2" height="1" fill="#dbe2ff"/>
<rect x="21" y="20" width="1" height="1" fill="#17151f"/>
<rect x="2" y="21" width="20" height="1" fill="#17151f"/>
</svg>
