<svg xmlns="http://www.w3.org/2000/svg" viewBox="0 0 64 64" shape-rendering="crispEdges">
<rect x="26" y="0" width="12" height="1" fill="#000000"/>
<rect x="22" y="1" width="20" height="1" fill="#000000"/>
<rect x="20" y="2" width="24" height="1" fill="#000000"/>
<rect x="17" y="3" width="30" height="1" fill="#000000"/>
<rect x="16" y="4" width="31" height="1" fill="#000000"/>
<rect x="47" y="4" width="1" height="1" fill="#ffffff"/>
<rect x="14" y="5" width="34" height="1" fill="#000000"/>
<rect x="48" y="5" width="2" height="1" fill="#ffffff"/>
<rect x="13" y="6" width="1" height="1" fill="#ffffff"/>
<rect x="14" y="6" width="35" height="1" fill="#000000"/>
<rect x="49" y="6" width="2" height="1" fill="#ffffff"/>
<rect x="11" y="7" width="4" height="1" fill="#ffffff"/>
<rect x="15" y="7" width="11" height="1" fill="#000000"/>
<rect x="26" y="7" width="1" height="1" fill="#ffffff"/>
<rect x="27" y="7" width="23" height="1" fill="#000000"/>
<rect x="50" y="7" width="1" height="1" fill="#ffffff"/>
<rect x="51" y="7" width="2" height="1" fill="#000000"/>
<rect x="10" y="8" width="8" height="1" fill="#ffffff"/>
<rect x="18" y="8" width="8" height="1" fill="#000000"/>
<rect x="26" y="8" width="1" height="1" fill="#ffffff"/>
<rect x="27" y="8" width="7" height="1" fill="#000000"/>
<rect x="34" y="8" width="1" height="1" fill="#ffffff"/>
<rect x="35" y="8" width="15" height="1" fill="#000000"/>
<rect x="50" y="8" width="2" height="1" fill="#ffffff"/>
<rect x="52" y="8" width="2" height="1" fill="#000000"/>
<rect x="9" y="9" width="3" height="1" fill="#ffffff"/>
<rect x="12" y="9" width="3" height="1" fill="#000000"/>
<rect x="15" y="9" width="6" height="1" fill="#ffffff"/>
<rect x="21" y="9" width="2" height="1" fill="#000000"/>
<rect x="23" y="9" width="1" height="1" fill="#ffffff"/>
<rect x="24" y="9" width="2" height="1" fill="#000000"/>
<rect x="26" y="9" width="1" height="1" fill="#ffffff"/>
<rect x="27" y="9" width="7" height="1" fill="#000000"/>
<rect x="34" y="9" width="2" height="1" fill="#ffffff"/>
<rect x="36" y="9" width="15" height="1" fill="#000000"/>
<rect x="51" y="9" width="1" height="1" fill="#ffffff"/>
<rect x="52" y="9" width="3" height="1" fill="#000000"/>
<rect x="8" y="10" width="9" height="1" fill="#000000"/>
<rect x="17" y="10" width="2" height="1" fill="#ffffff"/>
<rect x="19" y="10" width="1" height="1" fill="#000000"/>
<rect x="20" y="10" width="4" height="1" fill="#ffffff"/>
<rect x="24" y="10" width="2" height="1" fill="#000000"/>
<rect x="26" y="10" width="1" height="1" fill="#ffffff"/>
<rect x="27" y="10" width="8" height="1" fill="#000000"/>
<rect x="35" y="10" width="1" height="1" fill="#ffffff"/>
<rect x="36" y="10" width="10" height="1" fill="#000000"/>
<rect x="46" y="10" width="2" height="1" fill="#ffffff"/>
<rect x="48" y="10" width="3" height="1" fill="#000000"/>
<rect x="51" y="10" width="2" height="1" fill="#ffffff"/>
<rect x="53" y="10" width="3" height="1" fill="#000000"/>
<rect x="7" y="11" width="15" height="1" fill="#000000"/>
<rect x="22" y="11" width="25" height="1" fill="#ffffff"/>
<rect x="47" y="11" width="5" height="1" fill="#000000"/>
<rect x="52" y="11" width="1" height="1" fill="#ffffff"/>
<rect x="53" y="11" width="4" height="1" fill="#000000"/>
<rect x="7" y="12" width="15" height="1" fill="#000000"/>
<rect x="22" y="12" width="2" height="1" fill="#ffffff"/>
<rect x="24" y="12" width="2" height="1" fill="#000000"/>
<rect x="26" y="12" width="1" height="1" fill="#ffffff"/>
<rect x="27" y="12" width="9" height="1" fill="#000000"/>
<rect x="36" y="12" width="1" height="1" fill="#ffffff"/>
<rect x="37" y="12" width="15" height="1" fill="#000000"/>
<rect x="52" y="12" width="1" height="1" fill="#ffffff"/>
<rect x="53" y="12" width="4" height="1" fill="#000000"/>
<rect x="6" y="13" width="8" height="1" fill="#000000"/>
<rect x="14" y="13" width="1" height="1" fill="#ffffff"/>
<rect x="15" y="13" width="6" height="1" fill="#000000"/>
<rect x="21" y="13" width="3" height="1" fill="#ffffff"/>
<rect x="24" y="13" width="2" height="1" fill="#000000"/>
<rect x="26" y="13" width="2" height="1" fill="#ffffff"/>
<rect x="28" y="13" width="8" height="1" fill="#000000"/>
<rect x="36" y="13" width="2" height="1" fill="#ffffff"/>
<rect x="38" y="13" width="5" height="1" fill="#000000"/>
<rect x="43" y="13" width="1" height="1" fill="#ffffff"/>
<rect x="44" y="13" width="8" height="1" fill="#000000"/>
<rect x="52" y="13" width="2" height="1" fill="#ffffff"/>
<rect x="54" y="13" width="3" height="1" fill="#000000"/>
<rect x="57" y="13" width="1" height="1" fill="#ffffff"/>
<rect x="5" y="14" width="9" height="1" fill="#000000"/>
<rect x="14" y="14" width="1" height="1" fill="#ffffff"/>
<rect x="15" y="14" width="6" height="1" fill="#000000"/>
<rect x="21" y="14" width="3" height="1" fill="#ffffff"/>
<rect x="24" y="14" width="1" height="1" fill="#000000"/>
<rect x="25" y="14" width="3" height="1" fill="#ffffff"/>
<rect x="28" y="14" width="9" height="1" fill="#000000"/>
<rect x="37" y="14" width="2" height="1" fill="#ffffff"/>
<rect x="39" y="14" width="14" height="1" fill="#000000"/>
<rect x="53" y="14" width="1" height="1" fill="#ffffff"/>
<rect x="54" y="14" width="3" height="1" fill="#000000"/>
<rect x="57" y="14" width="2" height="1" fill="#ffffff"/>
<rect x="5" y="15" width="1" height="1" fill="#ffffff"/>
<rect x="6" y="15" width="8" height="1" fill="#000000"/>
<rect x="14" y="15" width="1" height="1" fill="#ffffff"/>
<rect x="15" y="15" width="5" height="1" fill="#000000"/>
<rect x="20" y="15" width="4" height="1" fill="#ffffff"/>
<rect x="24" y="15" width="1" height="1" fill="#000000"/>
<rect x="25" y="15" width="3" height="1" fill="#ffffff"/>
<rect x="28" y="15" width="7" height="1" fill="#000000"/>
<rect x="35" y="15" width="1" height="1" fill="#ffffff"/>
<rect x="36" y="15" width="1" height="1" fill="#000000"/>
<rect x="37" y="15" width="3" height="1" fill="#ffffff"/>
<rect x="40" y="15" width="2" height="1" fill="#000000"/>
<rect x="42" y="15" width="1" height="1" fill="#ffffff"/>
<rect x="43" y="15" width="1" height="1" fill="#000000"/>
<rect x="44" y="15" width="1" height="1" fill="#ffffff"/>
<rect x="45" y="15" width="8" height="1" fill="#000000"/>
<rect x="53" y="15" width="1" height="1" fill="#ffffff"/>
<rect x="54" y="15" width="2" height="1" fill="#000000"/>
<rect x="56" y="15" width="3" height="1" fill="#ffffff"/>
<rect x="4" y="16" width="2" height="1" fill="#ffffff"/>
<rect x="6" y="16" width="7" height="1" fill="#000000"/>
<rect x="13" y="16" width="2" height="1" fill="#ffffff"/>
<rect x="15" y="16" width="5" height="1" fill="#000000"/>
<rect x="20" y="16" width="4" height="1" fill="#ffffff"/>
<rect x="24" y="16" width="1" height="1" fill="#000000"/>
<rect x="25" y="16" width="3" height="1" fill="#ffffff"/>
<rect x="28" y="16" width="7" height="1" fill="#000000"/>
<rect x="35" y="16" width="1" height="1" fill="#ffffff"/>
<rect x="36" y="16" width="1" height="1" fill="#000000"/>
<rect x="37" y="16" width="4" height="1" fill="#ffffff"/>
<rect x="41" y="16" width="3" height="1" fill="#000000"/>
<rect x="44" y="16" width="1" height="1" fill="#ffffff"/>
<rect x="45" y="16" width="8" height="1" fill="#000000"/>
<rect x="53" y="16" width="1" height="1" fill="#ffffff"/>
<rect x="54" y="16" width="6" height="1" fill="#000000"/>
<rect x="3" y="17" width="2" height="1" fill="#ffffff"/>
<rect x="5" y="17" width="8" height="1" fill="#000000"/>
<rect x="13" y="17" width="2" height="1" fill="#ffffff"/>
<rect x="15" y="17" width="4" height="1" fill="#000000"/>
<rect x="19" y="17" width="5" height="1" fill="#ffffff"/>
<rect x="24" y="17" width="1" height="1" fill="#000000"/>
<rect x="25" y="17" width="3" height="1" fill="#ffffff"/>
<rect x="28" y="17" width="7" height="1" fill="#000000"/>
<rect x="35" y="17" width="2" height="1" fill="#ffffff"/>
<rect x="37" y="17" width="1" height="1" fill="#000000"/>
<rect x="38" y="17" width="4" height="1" fill="#ffffff"/>
<rect x="42" y="17" width="3" height="1" fill="#000000"/>
<rect x="45" y="17" width="1" height="1" fill="#ffffff"/>
<rect x="46" y="17" width="7" height="1" fill="#000000"/>
<rect x="53" y="17" width="2" height="1" fill="#ffffff"/>
<rect x="55" y="17" width="6" height="1" fill="#000000"/>
<rect x="3" y="18" width="2" height="1" fill="#ffffff"/>
<rect x="5" y="18" width="8" height="1" fill="#000000"/>
<rect x="13" y="18" width="2" height="1" fill="#ffffff"/>
<rect x="15" y="18" width="4" height="1" fill="#000000"/>
<rect x="19" y="18" width="5" height="1" fill="#ffffff"/>
<rect x="24" y="18" width="1" height="1" fill="#000000"/>
<rect x="25" y="18" width="3" height="1" fill="#ffffff"/>
<rect x="28" y="18" width="7" height="1" fill="#000000"/>
<rect x="35" y="18" width="2" height="1" fill="#ffffff"/>
<rect x="37" y="18" width="2" height="1" fill="#000000"/>
<rect x="39" y="18" width="3" height="1" fill="#ffffff"/>
<rect x="42" y="18" width="3" height="1" fill="#000000"/>
<rect x="45" y="18" width="2" height="1" fill="#ffffff"/>
<rect x="47" y="18" width="7" height="1" fill="#000000"/>
<rect x="54" y="18" width="1" height="1" fill="#ffffff"/>
<rect x="55" y="18" width="2" height="1" fill="#000000"/>
<rect x="57" y="18" width="4" height="1" fill="#ffffff"/>
<rect x="3" y="19" width="2" height="1" fill="#ffffff"/>
<rect x="5" y="19" width="9" height="1" fill="#000000"/>
<rect x="14" y="19" width="1" height="1" fill="#ffffff"/>
<rect x="15" y="19" width="4" height="1" fill="#000000"/>
<rect x="19" y="19" width="10" height="1" fill="#ffffff"/>
<rect x="29" y="19" width="6" height="1" fill="#000000"/>
<rect x="35" y="19" width="3" height="1" fill="#ffffff"/>
<rect x="38" y="19" width="1" height="1" fill="#000000"/>
<rect x="39" y="19" width="4" height="1" fill="#ffffff"/>
<rect x="43" y="19" width="2" height="1" fill="#000000"/>
<rect x="45" y="19" width="2" height="1" fill="#ffffff"/>
<rect x="47" y="19" width="11" height="1" fill="#000000"/>
<rect x="58" y="19" width="3" height="1" fill="#ffffff"/>
<rect x="2" y="20" width="3" height="1" fill="#ffffff"/>
<rect x="5" y="20" width="9" height="1" fill="#000000"/>
<rect x="14" y="20" width="2" height="1" fill="#ffffff"/>
<rect x="16" y="20" width="4" height="1" fill="#000000"/>
<rect x="20" y="20" width="9" height="1" fill="#ffffff"/>
<rect x="29" y="20" width="6" height="1" fill="#000000"/>
<rect x="35" y="20" width="3" height="1" fill="#ffffff"/>
<rect x="38" y="20" width="2" height="1" fill="#000000"/>
<rect x="40" y="20" width="4" height="1" fill="#ffffff"/>
<rect x="44" y="20" width="2" height="1" fill="#000000"/>
<rect x="46" y="20" width="2" height="1" fill="#ffffff"/>
<rect x="48" y="20" width="14" height="1" fill="#000000"/>
<rect x="2" y="21" width="3" height="1" fill="#ffffff"/>
<rect x="5" y="21" width="9" height="1" fill="#000000"/>
<rect x="14" y="21" width="2" height="1" fill="#ffffff"/>
<rect x="16" y="21" width="2" height="1" fill="#000000"/>
<rect x="18" y="21" width="1" height="1" fill="#ffffff"/>
<rect x="19" y="21" width="3" height="1" fill="#000000"/>
<rect x="22" y="21" width="7" height="1" fill="#ffffff"/>
<rect x="29" y="21" width="6" height="1" fill="#000000"/>
<rect x="35" y="21" width="4" height="1" fill="#ffffff"/>
<rect x="39" y="21" width="2" height="1" fill="#000000"/>
<rect x="41" y="21" width="6" height="1" fill="#ffffff"/>
<rect x="47" y="21" width="15" height="1" fill="#000000"/>
<rect x="1" y="22" width="4" height="1" fill="#ffffff"/>
<rect x="5" y="22" width="9" height="1" fill="#000000"/>
<rect x="14" y="22" width="7" height="1" fill="#ffffff"/>
<rect x="21" y="22" width="2" height="1" fill="#000000"/>
<rect x="23" y="22" width="7" height="1" fill="#ffffff"/>
<rect x="30" y="22" width="5" height="1" fill="#000000"/>
<rect x="35" y="22" width="5" height="1" fill="#ffffff"/>
<rect x="40" y="22" width="1" height="1" fill="#000000"/>
<rect x="41" y="22" width="4" height="1" fill="#ffffff"/>
<rect x="45" y="22" width="3" height="1" fill="#000000"/>
<rect x="48" y="22" width="1" height="1" fill="#ffffff"/>
<rect x="49" y="22" width="14" height="1" fill="#000000"/>
<rect x="1" y="23" width="4" height="1" fill="#ffffff"/>
<rect x="5" y="23" width="20" height="1" fill="#000000"/>
<rect x="25" y="23" width="5" height="1" fill="#ffffff"/>
<rect x="30" y="23" width="5" height="1" fill="#000000"/>
<rect x="35" y="23" width="8" height="1" fill="#ffffff"/>
<rect x="43" y="23" width="3" height="1" fill="#000000"/>
<rect x="46" y="23" width="4" height="1" fill="#ffffff"/>
<rect x="50" y="23" width="13" height="1" fill="#000000"/>
<rect x="1" y="24" width="4" height="1" fill="#ffffff"/>
<rect x="5" y="24" width="4" height="1" fill="#000000"/>
<rect x="9" y="24" width="1" height="1" fill="#ffffff"/>
<rect x="10" y="24" width="16" height="1" fill="#000000"/>
<rect x="26" y="24" width="5" height="1" fill="#ffffff"/>
<rect x="31" y="24" width="5" height="1" fill="#000000"/>
<rect x="36" y="24" width="5" height="1" fill="#ffffff"/>
<rect x="41" y="24" width="3" height="1" fill="#000000"/>
<rect x="44" y="24" width="6" height="1" fill="#ffffff"/>
<rect x="50" y="24" width="13" height="1" fill="#000000"/>
<rect x="1" y="25" width="5" height="1" fill="#ffffff"/>
<rect x="6" y="25" width="2" height="1" fill="#000000"/>
<rect x="8" y="25" width="2" height="1" fill="#ffffff"/>
<rect x="10" y="25" width="7" height="1" fill="#000000"/>
<rect x="17" y="25" width="1" height="1" fill="#ffffff"/>
<rect x="18" y="25" width="9" height="1" fill="#000000"/>
<rect x="27" y="25" width="4" height="1" fill="#ffffff"/>
<rect x="31" y="25" width="5" height="1" fill="#000000"/>
<rect x="36" y="25" width="3" height="1" fill="#ffffff"/>
<rect x="39" y="25" width="3" height="1" fill="#000000"/>
<rect x="42" y="25" width="9" height="1" fill="#ffffff"/>
<rect x="51" y="25" width="12" height="1" fill="#000000"/>
<rect x="0" y="26" width="6" height="1" fill="#ffffff"/>
<rect x="6" y="26" width="2" height="1" fill="#000000"/>
<rect x="8" y="26" width="1" height="1" fill="#ffffff"/>
<rect x="9" y="26" width="7" height="1" fill="#000000"/>
<rect x="16" y="26" width="2" height="1" fill="#ffffff"/>
<rect x="18" y="26" width="8" height="1" fill="#000000"/>
<rect x="26" y="26" width="6" height="1" fill="#ffffff"/>
<rect x="32" y="26" width="4" height="1" fill="#000000"/>
<rect x="36" y="26" width="3" height="1" fill="#ffffff"/>
<rect x="39" y="26" width="10" height="1" fill="#000000"/>
<rect x="49" y="26" width="3" height="1" fill="#ffffff"/>
<rect x="52" y="26" width="12" height="1" fill="#000000"/>
<rect x="0" y="27" width="6" height="1" fill="#ffffff"/>
<rect x="6" y="27" width="1" height="1" fill="#000000"/>
<rect x="7" y="27" width="2" height="1" fill="#ffffff"/>
<rect x="9" y="27" width="7" height="1" fill="#000000"/>
<rect x="16" y="27" width="2" height="1" fill="#ffffff"/>
<rect x="18" y="27" width="8" height="1" fill="#000000"/>
<rect x="26" y="27" width="6" height="1" fill="#ffffff"/>
<rect x="32" y="27" width="4" height="1" fill="#000000"/>
<rect x="36" y="27" width="4" height="1" fill="#ffffff"/>
<rect x="40" y="27" width="24" height="1" fill="#000000"/>
<rect x="0" y="28" width="6" height="1" fill="#ffffff"/>
<rect x="6" y="28" width="1" height="1" fill="#000000"/>
<rect x="7" y="28" width="2" height="1" fill="#ffffff"/>
<rect x="9" y="28" width="7" height="1" fill="#000000"/>
<rect x="16" y="28" width="2" height="1" fill="#ffffff"/>
<rect x="18" y="28" width="8" height="1" fill="#000000"/>
<rect x="26" y="28" width="6" height="1" fill="#ffffff"/>
<rect x="32" y="28" width="4" height="1" fill="#000000"/>
<rect x="36" y="28" width="8" height="1" fill="#ffffff"/>
<rect x="44" y="28" width="9" height="1" fill="#000000"/>
<rect x="53" y="28" width="2" height="1" fill="#ffffff"/>
<rect x="55" y="28" width="9" height="1" fill="#000000"/>
<rect x="0" y="29" width="9" height="1" fill="#ffffff"/>
<rect x="9" y="29" width="7" height="1" fill="#000000"/>
<rect x="16" y="29" width="2" height="1" fill="#ffffff"/>
<rect x="18" y="29" width="8" height="1" fill="#000000"/>
<rect x="26" y="29" width="7" height="1" fill="#ffffff"/>
<rect x="33" y="29" width="3" height="1" fill="#000000"/>
<rect x="36" y="29" width="8" height="1" fill="#ffffff"/>
<rect x="44" y="29" width="9" height="1" fill="#000000"/>
<rect x="53" y="29" width="2" height="1" fill="#ffffff"/>
<rect x="55" y="29" width="9" height="1" fill="#000000"/>
<rect x="0" y="30" width="8" height="1" fill="#ffffff"/>
<rect x="8" y="30" width="8" height="1" fill="#000000"/>
<rect x="16" y="30" width="2" height="1" fill="#ffffff"/>
<rect x="18" y="30" width="8" height="1" fill="#000000"/>
<rect x="26" y="30" width="8" height="1" fill="#ffffff"/>
<rect x="34" y="30" width="2" height="1" fill="#000000"/>
<rect x="36" y="30" width="8" height="1" fill="#ffffff"/>
<rect x="44" y="30" width="9" height="1" fill="#000000"/>
<rect x="53" y="30" width="1" height="1" fill="#ffffff"/>
<rect x="54" y="30" width="10" height="1" fill="#000000"/>
<rect x="0" y="31" width="8" height="1" fill="#ffffff"/>
<rect x="8" y="31" width="8" height="1" fill="#000000"/>
<rect x="16" y="31" width="3" height="1" fill="#ffffff"/>
<rect x="19" y="31" width="3" height="1" fill="#000000"/>
<rect x="22" y="31" width="2" height="1" fill="#ffffff"/>
<rect x="24" y="31" width="2" height="1" fill="#000000"/>
<rect x="26" y="31" width="8" height="1" fill="#ffffff"/>
<rect x="34" y="31" width="2" height="1" fill="#000000"/>
<rect x="36" y="31" width="8" height="1" fill="#ffffff"/>
<rect x="44" y="31" width="9" height="1" fill="#000000"/>
<rect x="53" y="31" width="1" height="1" fill="#ffffff"/>
<rect x="54" y="31" width="10" height="1" fill="#000000"/>
<rect x="0" y="32" width="8" height="1" fill="#ffffff"/>
<rect x="8" y="32" width="7" height="1" fill="#000000"/>
<rect x="15" y="32" width="4" height="1" fill="#ffffff"/>
<rect x="19" y="32" width="3" height="1" fill="#000000"/>
<rect x="22" y="32" width="2" height="1" fill="#ffffff"/>
<rect x="24" y="32" width="1" height="1" fill="#000000"/>
<rect x="25" y="32" width="19" height="1" fill="#ffffff"/>
<rect x="44" y="32" width="5" height="1" fill="#000000"/>
<rect x="49" y="32" width="2" height="1" fill="#ffffff"/>
<rect x="51" y="32" width="1" height="1" fill="#000000"/>
<rect x="52" y="32" width="1" height="1" fill="#ffffff"/>
<rect x="53" y="32" width="11" height="1" fill="#000000"/>
<rect x="0" y="33" width="8" height="1" fill="#ffffff"/>
<rect x="8" y="33" width="7" height="1" fill="#000000"/>
<rect x="15" y="33" width="5" height="1" fill="#ffffff"/>
<rect x="20" y="33" width="5" height="1" fill="#000000"/>
<rect x="25" y="33" width="19" height="1" fill="#ffffff"/>
<rect x="44" y="33" width="5" height="1" fill="#000000"/>
<rect x="49" y="33" width="2" height="1" fill="#ffffff"/>
<rect x="51" y="33" width="1" height="1" fill="#000000"/>
<rect x="52" y="33" width="1" height="1" fill="#ffffff"/>
<rect x="53" y="33" width="11" height="1" fill="#000000"/>
<rect x="0" y="34" width="7" height="1" fill="#ffffff"/>
<rect x="7" y="34" width="8" height="1" fill="#000000"/>
<rect x="15" y="34" width="6" height="1" fill="#ffffff"/>
<rect x="21" y="34" width="3" height="1" fill="#000000"/>
<rect x="24" y="34" width="20" height="1" fill="#ffffff"/>
<rect x="44" y="34" width="20" height="1" fill="#000000"/>
<rect x="0" y="35" width="7" height="1" fill="#ffffff"/>
<rect x="7" y="35" width="8" height="1" fill="#000000"/>
<rect x="15" y="35" width="30" height="1" fill="#ffffff"/>
<rect x="45" y="35" width="6" height="1" fill="#000000"/>
<rect x="51" y="35" width="1" height="1" fill="#ffffff"/>
<rect x="52" y="35" width="12" height="1" fill="#000000"/>
<rect x="0" y="36" width="7" height="1" fill="#ffffff"/>
<rect x="7" y="36" width="8" height="1" fill="#000000"/>
<rect x="15" y="36" width="30" height="1" fill="#ffffff"/>
<rect x="45" y="36" width="6" height="1" fill="#000000"/>
<rect x="51" y="36" width="1" height="1" fill="#ffffff"/>
<rect x="52" y="36" width="4" height="1" fill="#000000"/>
<rect x="56" y="36" width="2" height="1" fill="#ffffff"/>
<rect x="58" y="36" width="6" height="1" fill="#000000"/>
<rect x="0" y="37" width="6" height="1" fill="#ffffff"/>
<rect x="6" y="37" width="9" height="1" fill="#000000"/>
<rect x="15" y="37" width="1" height="1" fill="#ffffff"/>
<rect x="16" y="37" width="4" height="1" fill="#c0c0c0"/>
<rect x="20" y="37" width="27" height="1" fill="#ffffff"/>
<rect x="47" y="37" width="3" height="1" fill="#000000"/>
<rect x="50" y="37" width="1" height="1" fill="#ffffff"/>
<rect x="51" y="37" width="5" height="1" fill="#000000"/>
<rect x="56" y="37" width="3" height="1" fill="#ffffff"/>
<rect x="59" y="37" width="5" height="1" fill="#000000"/>
<rect x="1" y="38" width="5" height="1" fill="#ffffff"/>
<rect x="6" y="38" width="9" height="1" fill="#000000"/>
<rect x="15" y="38" width="1" height="1" fill="#ffffff"/>
<rect x="16" y="38" width="4" height="1" fill="#c0c0c0"/>
<rect x="20" y="38" width="27" height="1" fill="#ffffff"/>
<rect x="47" y="38" width="2" height="1" fill="#c0c0c0"/>
<rect x="49" y="38" width="2" height="1" fill="#ffffff"/>
<rect x="51" y="38" width="4" height="1" fill="#000000"/>
<rect x="55" y="38" width="4" height="1" fill="#ffffff"/>
<rect x="59" y="38" width="4" height="1" fill="#000000"/>
<rect x="1" y="39" width="4" height="1" fill="#ffffff"/>
<rect x="5" y="39" width="11" height="1" fill="#000000"/>
<rect x="16" y="39" width="4" height="1" fill="#c0c0c0"/>
<rect x="20" y="39" width="26" height="1" fill="#ffffff"/>
<rect x="46" y="39" width="4" height="1" fill="#c0c0c0"/>
<rect x="50" y="39" width="1" height="1" fill="#ffffff"/>
<rect x="51" y="39" width="4" height="1" fill="#000000"/>
<rect x="55" y="39" width="4" height="1" fill="#ffffff"/>
<rect x="59" y="39" width="4" height="1" fill="#000000"/>
<rect x="1" y="40" width="4" height="1" fill="#ffffff"/>
<rect x="5" y="40" width="6" height="1" fill="#000000"/>
<rect x="11" y="40" width="1" height="1" fill="#ffffff"/>
<rect x="12" y="40" width="4" height="1" fill="#000000"/>
<rect x="16" y="40" width="30" height="1" fill="#ffffff"/>
<rect x="46" y="40" width="4" height="1" fill="#c0c0c0"/>
<rect x="50" y="40" width="4" height="1" fill="#000000"/>
<rect x="54" y="40" width="5" height="1" fill="#ffffff"/>
<rect x="59" y="40" width="4" height="1" fill="#000000"/>
<rect x="1" y="41" width="3" height="1" fill="#ffffff"/>
<rect x="4" y="41" width="7" height="1" fill="#000000"/>
<rect x="11" y="41" width="2" height="1" fill="#ffffff"/>
<rect x="13" y="41" width="4" height="1" fill="#000000"/>
<rect x="17" y="41" width="12" height="1" fill="#ffffff"/>
<rect x="29" y="41" width="5" height="1" fill="#000000"/>
<rect x="34" y="41" width="13" height="1" fill="#ffffff"/>
<rect x="47" y="41" width="2" height="1" fill="#c0c0c0"/>
<rect x="49" y="41" width="1" height="1" fill="#ffffff"/>
<rect x="50" y="41" width="4" height="1" fill="#000000"/>
<rect x="54" y="41" width="3" height="1" fill="#ffffff"/>
<rect x="57" y="41" width="6" height="1" fill="#000000"/>
<rect x="2" y="42" width="2" height="1" fill="#ffffff"/>
<rect x="4" y="42" width="7" height="1" fill="#000000"/>
<rect x="11" y="42" width="4" height="1" fill="#ffffff"/>
<rect x="15" y="42" width="3" height="1" fill="#000000"/>
<rect x="18" y="42" width="11" height="1" fill="#ffffff"/>
<rect x="29" y="42" width="1" height="1" fill="#000000"/>
<rect x="30" y="42" width="3" height="1" fill="#ffffff"/>
<rect x="33" y="42" width="3" height="1" fill="#000000"/>
<rect x="36" y="42" width="13" height="1" fill="#ffffff"/>
<rect x="49" y="42" width="13" height="1" fill="#000000"/>
<rect x="2" y="43" width="1" height="1" fill="#ffffff"/>
<rect x="3" y="43" width="7" height="1" fill="#000000"/>
<rect x="10" y="43" width="6" height="1" fill="#ffffff"/>
<rect x="16" y="43" width="4" height="1" fill="#000000"/>
<rect x="20" y="43" width="9" height="1" fill="#ffffff"/>
<rect x="29" y="43" width="1" height="1" fill="#000000"/>
<rect x="30" y="43" width="5" height="1" fill="#ffffff"/>
<rect x="35" y="43" width="1" height="1" fill="#000000"/>
<rect x="36" y="43" width="12" height="1" fill="#ffffff"/>
<rect x="48" y="43" width="14" height="1" fill="#000000"/>
<rect x="3" y="44" width="7" height="1" fill="#000000"/>
<rect x="10" y="44" width="6" height="1" fill="#ffffff"/>
<rect x="16" y="44" width="6" height="1" fill="#000000"/>
<rect x="22" y="44" width="7" height="1" fill="#ffffff"/>
<rect x="29" y="44" width="1" height="1" fill="#000000"/>
<rect x="30" y="44" width="5" height="1" fill="#ffffff"/>
<rect x="35" y="44" width="2" height="1" fill="#000000"/>
<rect x="37" y="44" width="10" height="1" fill="#ffffff"/>
<rect x="47" y="44" width="14" height="1" fill="#000000"/>
<rect x="3" y="45" width="6" height="1" fill="#000000"/>
<rect x="9" y="45" width="8" height="1" fill="#ffffff"/>
<rect x="17" y="45" width="8" height="1" fill="#000000"/>
<rect x="25" y="45" width="5" height="1" fill="#ffffff"/>
<rect x="30" y="45" width="1" height="1" fill="#000000"/>
<rect x="31" y="45" width="5" height="1" fill="#ffffff"/>
<rect x="36" y="45" width="1" height="1" fill="#000000"/>
<rect x="37" y="45" width="9" height="1" fill="#ffffff"/>
<rect x="46" y="45" width="15" height="1" fill="#000000"/>
<rect x="3" y="46" width="4" height="1" fill="#000000"/>
<rect x="7" y="46" width="1" height="1" fill="#ffffff"/>
<rect x="8" y="46" width="1" height="1" fill="#000000"/>
<rect x="9" y="46" width="8" height="1" fill="#ffffff"/>
<rect x="17" y="46" width="11" height="1" fill="#000000"/>
<rect x="28" y="46" width="2" height="1" fill="#ffffff"/>
<rect x="30" y="46" width="1" height="1" fill="#000000"/>
<rect x="31" y="46" width="5" height="1" fill="#ffffff"/>
<rect x="36" y="46" width="2" height="1" fill="#000000"/>
<rect x="38" y="46" width="6" height="1" fill="#ffffff"/>
<rect x="44" y="46" width="17" height="1" fill="#000000"/>
<rect x="4" y="47" width="3" height="1" fill="#000000"/>
<rect x="7" y="47" width="1" height="1" fill="#ffffff"/>
<rect x="8" y="47" width="1" height="1" fill="#000000"/>
<rect x="9" y="47" width="9" height="1" fill="#ffffff"/>
<rect x="18" y="47" width="33" height="1" fill="#000000"/>
<rect x="51" y="47" width="1" height="1" fill="#c0c0c0"/>
<rect x="52" y="47" width="8" height="1" fill="#000000"/>
<rect x="5" y="48" width="1" height="1" fill="#000000"/>
<rect x="6" y="48" width="2" height="1" fill="#ffffff"/>
<rect x="8" y="48" width="1" height="1" fill="#000000"/>
<rect x="9" y="48" width="9" height="1" fill="#ffffff"/>
<rect x="18" y="48" width="20" height="1" fill="#000000"/>
<rect x="38" y="48" width="6" height="1" fill="#c0c0c0"/>
<rect x="44" y="48" width="6" height="1" fill="#000000"/>
<rect x="50" y="48" width="2" height="1" fill="#c0c0c0"/>
<rect x="52" y="48" width="7" height="1" fill="#000000"/>
<rect x="5" y="49" width="1" height="1" fill="#000000"/>
<rect x="6" y="49" width="1" height="1" fill="#ffffff"/>
<rect x="7" y="49" width="1" height="1" fill="#000000"/>
<rect x="8" y="49" width="10" height="1" fill="#ffffff"/>
<rect x="18" y="49" width="10" height="1" fill="#000000"/>
<rect x="28" y="49" width="5" height="1" fill="#c0c0c0"/>
<rect x="33" y="49" width="4" height="1" fill="#000000"/>
<rect x="37" y="49" width="6" height="1" fill="#c0c0c0"/>
<rect x="43" y="49" width="6" height="1" fill="#000000"/>
<rect x="49" y="49" width="2" height="1" fill="#c0c0c0"/>
<rect x="51" y="49" width="8" height="1" fill="#000000"/>
<rect x="6" y="50" width="1" height="1" fill="#ffffff"/>
<rect x="7" y="50" width="1" height="1" fill="#000000"/>
<rect x="8" y="50" width="10" height="1" fill="#ffffff"/>
<rect x="18" y="50" width="8" height="1" fill="#000000"/>
<rect x="26" y="50" width="5" height="1" fill="#c0c0c0"/>
<rect x="31" y="50" width="3" height="1" fill="#000000"/>
<rect x="34" y="50" width="8" height="1" fill="#c0c0c0"/>
<rect x="42" y="50" width="6" height="1" fill="#000000"/>
<rect x="48" y="50" width="4" height="1" fill="#c0c0c0"/>
<rect x="52" y="50" width="6" height="1" fill="#000000"/>
<rect x="7" y="51" width="1" height="1" fill="#000000"/>
<rect x="8" y="51" width="10" height="1" fill="#ffffff"/>
<rect x="18" y="51" width="6" height="1" fill="#000000"/>
<rect x="24" y="51" width="6" height="1" fill="#c0c0c0"/>
<rect x="30" y="51" width="2" height="1" fill="#000000"/>
<rect x="32" y="51" width="9" height="1" fill="#c0c0c0"/>
<rect x="41" y="51" width="6" height="1" fill="#000000"/>
<rect x="47" y="51" width="3" height="1" fill="#c0c0c0"/>
<rect x="50" y="51" width="7" height="1" fill="#000000"/>
<rect x="7" y="52" width="11" height="1" fill="#ffffff"/>
<rect x="18" y="52" width="6" height="1" fill="#000000"/>
<rect x="24" y="52" width="5" height="1" fill="#c0c0c0"/>
<rect x="29" y="52" width="2" height="1" fill="#000000"/>
<rect x="31" y="52" width="9" height="1" fill="#c0c0c0"/>
<rect x="40" y="52" width="5" height="1" fill="#000000"/>
<rect x="45" y="52" width="3" height="1" fill="#c0c0c0"/>
<rect x="48" y="52" width="3" height="1" fill="#000000"/>
<rect x="51" y="52" width="2" height="1" fill="#c0c0c0"/>
<rect x="53" y="52" width="4" height="1" fill="#000000"/>
<rect x="8" y="53" width="10" height="1" fill="#ffffff"/>
<rect x="18" y="53" width="6" height="1" fill="#000000"/>
<rect x="24" y="53" width="5" height="1" fill="#c0c0c0"/>
<rect x="29" y="53" width="1" height="1" fill="#000000"/>
<rect x="30" y="53" width="9" height="1" fill="#c0c0c0"/>
<rect x="39" y="53" width="9" height="1" fill="#000000"/>
<rect x="48" y="53" width="5" height="1" fill="#c0c0c0"/>
<rect x="53" y="53" width="3" height="1" fill="#000000"/>
<rect x="9" y="54" width="9" height="1" fill="#ffffff"/>
<rect x="18" y="54" width="8" height="1" fill="#000000"/>
<rect x="26" y="54" width="3" height="1" fill="#c0c0c0"/>
<rect x="29" y="54" width="2" height="1" fill="#000000"/>
<rect x="31" y="54" width="7" height="1" fill="#c0c0c0"/>
<rect x="38" y="54" width="4" height="1" fill="#000000"/>
<rect x="42" y="54" width="12" height="1" fill="#c0c0c0"/>
<rect x="54" y="54" width="1" height="1" fill="#000000"/>
<rect x="10" y="55" width="8" height="1" fill="#ffffff"/>
<rect x="18" y="55" width="9" height="1" fill="#000000"/>
<rect x="27" y="55" width="3" height="1" fill="#c0c0c0"/>
<rect x="30" y="55" width="2" height="1" fill="#000000"/>
<rect x="32" y="55" width="4" height="1" fill="#c0c0c0"/>
<rect x="36" y="55" width="4" height="1" fill="#000000"/>
<rect x="40" y="55" width="14" height="1" fill="#c0c0c0"/>
<rect x="11" y="56" width="8" height="1" fill="#ffffff"/>
<rect x="19" y="56" width="9" height="1" fill="#000000"/>
<rect x="28" y="56" width="3" height="1" fill="#c0c0c0"/>
<rect x="31" y="56" width="2" height="1" fill="#000000"/>
<rect x="33" y="56" width="2" height="1" fill="#c0c0c0"/>
<rect x="35" y="56" width="4" height="1" fill="#000000"/>
<rect x="39" y="56" width="14" height="1" fill="#c0c0c0"/>
<rect x="13" y="57" width="6" height="1" fill="#ffffff"/>
<rect x="19" y="57" width="9" height="1" fill="#000000"/>
<rect x="28" y="57" width="2" height="1" fill="#7e7e7e"/>
<rect x="30" y="57" width="2" height="1" fill="#c0c0c0"/>
<rect x="32" y="57" width="6" height="1" fill="#000000"/>
<rect x="38" y="57" width="9" height="1" fill="#c0c0c0"/>
<rect x="47" y="57" width="1" height="1" fill="#7e7e7e"/>
<rect x="48" y="57" width="3" height="1" fill="#c0c0c0"/>
<rect x="14" y="58" width="5" height="1" fill="#ffffff"/>
<rect x="19" y="58" width="10" height="1" fill="#000000"/>
<rect x="29" y="58" width="2" height="1" fill="#7e7e7e"/>
<rect x="31" y="58" width="2" height="1" fill="#c0c0c0"/>
<rect x="33" y="58" width="3" height="1" fill="#000000"/>
<rect x="36" y="58" width="11" height="1" fill="#c0c0c0"/>
<rect x="47" y="58" width="2" height="1" fill="#7e7e7e"/>
<rect x="49" y="58" width="1" height="1" fill="#c0c0c0"/>
<rect x="16" y="59" width="3" height="1" fill="#ffffff"/>
<rect x="19" y="59" width="6" height="1" fill="#000000"/>
<rect x="25" y="59" width="5" height="1" fill="#c0c0c0"/>
<rect x="30" y="59" width="2" height="1" fill="#7e7e7e"/>
<rect x="32" y="59" width="3" height="1" fill="#000000"/>
<rect x="35" y="59" width="13" height="1" fill="#c0c0c0"/>
<rect x="17" y="60" width="2" height="1" fill="#ffffff"/>
<rect x="19" y="60" width="5" height="1" fill="#000000"/>
<rect x="24" y="60" width="6" height="1" fill="#c0c0c0"/>
<rect x="30" y="60" width="5" height="1" fill="#000000"/>
<rect x="35" y="60" width="12" height="1" fill="#c0c0c0"/>
<rect x="20" y="61" width="2" height="1" fill="#000000"/>
<rect x="22" y="61" width="7" height="1" fill="#c0c0c0"/>
<rect x="29" y="61" width="3" height="1" fill="#000000"/>
<rect x="32" y="61" width="12" height="1" fill="#c0c0c0"/>
<rect x="22" y="62" width="5" height="1" fill="#c0c0c0"/>
<rect x="27" y="62" width="3" height="1" fill="#000000"/>
<rect x="30" y="62" width="12" height="1" fill="#c0c0c0"/>
<rect x="26" y="63" width="2" height="1" fill="#000000"/>
<rect x="28" y="63" width="10" height="1" fill="#c0c0c0"/>
</svg>
