<svg xmlns="http://www.w3.org/2000/svg" viewBox="0 0 24 24" shape-rendering="crispEdges">
<rect x="7" y="0" width="10" height="1" fill="#17151f"/>
<rect x="5" y="1" width="2" height="1" fill="#17151f"/>
<rect x="7" y="1" width="10" height="1" fill="#d1d5db"/>
<rect x="17" y="1" width="2" height="1" fill="#17151f"/>
<rect x="4" y="2" width="1" height="1" fill="#17151f"/>
<rect x="5" y="2" width="14" height="1" fill="#d1d5db"/>
<rect x="19" y="2" width="1" height="1" fill="#17151f"/>
<rect x="3" y="3" width="1" height="1" fill="#17151f"/>
<rect x="4" y="3" width="16" height="1" fill="#d1d5db"/>
<rect x="20" y="3" width="1" height="1" fill="#17151f"/>
<rect x="2" y="4" width="1" height="1" fill="#17151f"/>
<rect x="3" y="4" width="18" height="1" fill="#d1d5db"/>
<rect x="21" y="4" width="1" height="1" fill="#17151f"/>
<rect x="2" y="5" width="1" height="1" fill="#17151f"/>
<rect x="3" y="5" width="18" height="1" fill="#d1d5db"/>
<rect x="21" y="5" width="1" height="1" fill="#17151f"/>
<rect x="2" y="6" width="1" height="1" fill="#17151f"/>
<rect x="3" y="6" width="18" height="1" fill="#d1d5db"/>
<rect x="21" y="6" width="1" height="1" fill="#17151f"/>
<rect x="2" y="7" width="1" height="1" fill="#17151f"/>
<rect x="3" y="7" width="18" height="1" fill="#d1d5db"/>
<rect x="21" y="7" width="1" height="1" fill="#17151f"/>
<rect x="2" y="8" width="1" height="1" fill="#17151f"/>
<rect x="3" y="8" width="2" height="1" fill="#d1d5db"/>
<rect x="5" y="8" width="1" height="1" fill="#9ca3af"/>
<rect x="6" y="8" width="12" height="1" fill="#d1d5db"/>
<rect x="18" y="8" width="1" height="1" fill="#9ca3af"/>
<rect x="19" y="8" width="2" height="1" fill="#d1d5db"/>
<rect x="21" y="8" width="1" height="1" fill="#17151f"/>
<rect x="2" y="9" width="1" height="1" fill="#17151f"/>
<rect x="3" y="9" width="18" height="1" fill="#fbd3ab"/>
<rect x="21" y="9" width="1" height="1" fill="#17151f"/>
<rect x="2" y="10" width="1" height="1" fill="#17151f"/>
<rect x="3" y="10" width="2" height="1" fill="#d1d5db"/>
<rect x="5" y="10" width="14" height="1" fill="#fbd3ab"/>
<rect x="19" y="10" width="2" height="1" fill="#d1d5db"/>
<rect x="21" y="10" width="1" height="1" fill="#17151f"/>
<rect x="2" y="11" width="1" height="1" fill="#17151f"/>
<rect x="3" y="11" width="2" height="1" fill="#d1d5db"/>
<rect x="5" y="11" width="6" height="1" fill="#17151f"/>
<rect x="11" y="11" width="2" height="1" fill="#ffffff"/>
<rect x="13" y="11" width="6" height="1" fill="#17151f"/>
<rect x="19" y="11" width="2" height="1" fill="#d1d5db"/>
<rect x="21" y="11" width="1" height="1" fill="#17151f"/>
<rect x="2" y="12" width="1" height="1" fill="#17151f"/>
<rect x="3" y="12" width="2" height="1" fill="#d1d5db"/>
<rect x="5" y="12" width="1" height="1" fill="#17151f"/>
<rect x="6" y="12" width="1" height="1" fill="#ffffff"/>
<rect x="7" y="12" width="2" height="1" fill="#312e81"/>
<rect x="9" y="12" width="1" height="1" fill="#ffffff"/>
<rect x="10" y="12" width="4" height="1" fill="#17151f"/>
<rect x="14" y="12" width="1" height="1" fill="#ffffff"/>
<rect x="15" y="12" width="2" height="1" fill="#312e81"/>
<rect x="17" y="12" width="1" height="1" fill="#ffffff"/>
<rect x="18" y="12" width="1" height="1" fill="#17151f"/>
<rect x="19" y="12" width="2" height="1" fill="#d1d5db"/>
<rect x="21" y="12" width="1" height="1" fill="#17151f"/>
<rect x="2" y="13" width="1" height="1" fill="#17151f"/>
<rect x="3" y="13" width="2" height="1" fill="#d1d5db"/>
<rect x="5" y="13" width="6" height="1" fill="#17151f"/>
<rect x="11" y="13" width="2" height="1" fill="#ffffff"/>
<rect x="13" y="13" width="6" height="1" fill="#17151f"/>
<rect x="19" y="13" width="2" height="1" fill="#d1d5db"/>
<rect x="21" y="13" width="1" height="1" fill="#17151f"/>
<rect x="2" y="14" width="1" height="1" fill="#17151f"/>
<rect x="3" y="14" width="18" height="1" fill="#fbd3ab"/>
<rect x="21" y="14" width="1" height="1" fill="#17151f"/>
<rect x="2" y="15" width="1" height="1" fill="#17151f"/>
<rect x="3" y="15" width="8" height="1" fill="#fbd3ab"/>
<rect x="11" y="15" width="2" height="1" fill="#17151f"/>
<rect x="13" y="15" width="8" height="1" fill="#fbd3ab"/>
<rect x="21" y="15" width="1" height="1" fill="#17151f"/>
<rect x="2" y="16" width="1" height="1" fill="#17151f"/>
<rect x="3" y="16" width="18" height="1" fill="#fbd3ab"/>
<rect x="21" y="16" width="1" height="1" fill="#17151f"/>
<rect x="2" y="17" width="5" height="1" fill="#17151f"/>
<rect x="7" y="17" width="10" height="1" fill="#fbd3ab"/>
<rect x="17" y="17" width="5" height="1" fill="#17151f"/>
<rect x="9" y="18" width="1" height="1" fill="#17151f"/>
<rect x="10" y="18" width="4" height="1" fill="#fbd3ab"/>
<rect x="14" y="18" width="1" height="1" fill="#17151f"/>
<rect x="9" y="19" width="1" height="1" fill="#17151f"/>
<rect x="10" y="19" width="4" height="1" fill="#fbd3ab"/>
<rect x="14" y="19" width="1" height="1" fill="#17151f"/>
<rect x="7" y="20" width="2" height="1" fill="#17151f"/>
<rect x="9" y="20" width="2" height="1" fill="#ffffff"/>
<rect x="11" y="20" width="2" height="1" fill="#7c2d3a"/>
<rect x="13" y="20" width="2" height="1" fill="#ffffff"/>
<rect x="15" y="20" width="2" height="1" fill="#17151f"/>
<rect x="6" y="21" width="1" height="1" fill="#17151f"/>
<rect x="7" y="21" width="2" height="1" fill="#374151"/>
<rect x="9" y="21" width="2" height="1" fill="#ffffff"/>
<rect x="11" y="21" width="2" height="1" fill="#7c2d3a"/>
<rect x="13" y="21" width="2" height="1" fill="#ffffff"/>
<rect x="15" y="21" width="2" height="1" fill="#374151"/>
<rect x="17" y="21" width="1" height="1" fill="#17151f"/>
<rect x="5" y="22" width="1" height="1" fill="#17151f"/>
<rect x="6" y="22" width="3" height="1" fill="#374151"/>
<rect x="9" y="22" width="2" height="1" fill="#ffffff"/>
<rect x="11" y="22" width="2" height="1" fill="#7c2d3a"/>
<rect x="13" y="22" width="2" height="1" fill="#ffffff"/>
<rect x="15" y="22" width="3" height="1" fill="#374151"/>
<rect x="18" y="22" width="1" height="1" fill="#17151f"/>
<rect x="5" y="23" width="14" height="1" fill="#17151f"/>
</svg>
